<svg width="40" height="40" viewBox="0 0 40 40" fill="none" xmlns="http://www.w3.org/2000/svg">
<path d="M20 8.33334C20.002 7.66672 19.8706 7.00644 19.6137 6.39134C19.3567 5.77623 18.9793 5.21871 18.5038 4.75158C18.0282 4.28444 17.464 3.91712 16.8444 3.67122C16.2248 3.42532 15.5623 3.3058 14.8958 3.31969C14.2293 3.33358 13.5724 3.4806 12.9636 3.75211C12.3547 4.02362 11.8064 4.41413 11.3507 4.90068C10.895 5.38722 10.5412 5.95998 10.3101 6.58526C10.079 7.21054 9.97526 7.87571 10.005 8.54167C9.02533 8.79356 8.11583 9.26509 7.34538 9.92052C6.57493 10.576 5.96373 11.3981 5.55807 12.3247C5.15241 13.2514 4.96293 14.2582 5.00398 15.2689C5.04503 16.2796 5.31553 17.2677 5.795 18.1583C4.95196 18.8432 4.28904 19.7237 3.8639 20.7232C3.43875 21.7227 3.26426 22.811 3.3556 23.8933C3.44695 24.9756 3.80136 26.0193 4.38801 26.9334C4.97465 27.8475 5.77577 28.6044 6.72166 29.1383C6.60486 30.0421 6.67456 30.9601 6.92648 31.8359C7.17839 32.7116 7.60716 33.5264 8.1863 34.2299C8.76545 34.9335 9.48268 35.5108 10.2937 35.9263C11.1047 36.3417 11.9923 36.5866 12.9016 36.6456C13.811 36.7046 14.7227 36.5765 15.5806 36.2694C16.4386 35.9622 17.2244 35.4824 17.8896 34.8596C18.5548 34.2368 19.0853 33.4843 19.4483 32.6484C19.8112 31.8126 19.999 30.9112 20 30V8.33334Z" stroke="#1E1E1E" stroke-width="2.5" stroke-linecap="round" stroke-linejoin="round"/>
<path d="M20 8.33334C19.998 7.66672 20.1294 7.00644 20.3863 6.39134C20.6433 5.77623 21.0206 5.21871 21.4962 4.75158C21.9718 4.28444 22.536 3.91712 23.1556 3.67122C23.7752 3.42532 24.4377 3.3058 25.1042 3.31969C25.7706 3.33358 26.4276 3.4806 27.0364 3.75211C27.6453 4.02362 28.1936 4.41413 28.6493 4.90068C29.105 5.38722 29.4588 5.95998 29.6899 6.58526C29.921 7.21054 30.0247 7.87571 29.995 8.54167C30.9747 8.79356 31.8842 9.26509 32.6546 9.92052C33.4251 10.576 34.0363 11.3981 34.4419 12.3247C34.8476 13.2514 35.0371 14.2582 34.996 15.2689C34.955 16.2796 34.6845 17.2677 34.205 18.1583C35.048 18.8432 35.711 19.7237 36.1361 20.7232C36.5612 21.7227 36.7357 22.811 36.6444 23.8933C36.5531 24.9756 36.1986 26.0193 35.612 26.9334C35.0253 27.8475 34.2242 28.6044 33.2783 29.1383C33.3951 30.0421 33.3254 30.9601 33.0735 31.8359C32.8216 32.7116 32.3928 33.5264 31.8137 34.2299C31.2345 34.9335 30.5173 35.5108 29.7063 35.9263C28.8953 36.3417 28.0077 36.5866 27.0984 36.6456C26.189 36.7046 25.2773 36.5765 24.4194 36.2694C23.5614 35.9622 22.7756 35.4824 22.1104 34.8596C21.4452 34.2368 20.9147 33.4843 20.5517 32.6484C20.1887 31.8126 20.001 30.9112 20 30V8.33334Z" stroke="#1E1E1E" stroke-width="2.5" stroke-linecap="round" stroke-linejoin="round"/>
<path d="M25 21.6667C23.6007 21.1744 22.3789 20.2783 21.4889 19.0917C20.5989 17.905 20.0808 16.4811 20 15C19.9192 16.4811 19.4011 17.905 18.5111 19.0917C17.6211 20.2783 16.3993 21.1744 15 21.6667" stroke="#1E1E1E" stroke-width="2.5" stroke-linecap="round" stroke-linejoin="round"/>
<path d="M29.3317 10.8333C29.735 10.1343 29.9632 9.34799 29.9967 8.54163" stroke="#1E1E1E" stroke-width="2.5" stroke-linecap="round" stroke-linejoin="round"/>
<path d="M10.005 8.54163C10.038 9.34785 10.2655 10.1341 10.6683 10.8333" stroke="#1E1E1E" stroke-width="2.5" stroke-linecap="round" stroke-linejoin="round"/>
<path d="M5.795 18.16C6.0999 17.9117 6.42617 17.6908 6.77 17.5" stroke="#1E1E1E" stroke-width="2.5" stroke-linecap="round" stroke-linejoin="round"/>
<path d="M33.23 17.5C33.5738 17.6908 33.9001 17.9117 34.205 18.16" stroke="#1E1E1E" stroke-width="2.5" stroke-linecap="round" stroke-linejoin="round"/>
<path d="M10 30C8.85138 30.0006 7.72211 29.7043 6.72166 29.14" stroke="#1E1E1E" stroke-width="2.5" stroke-linecap="round" stroke-linejoin="round"/>
<path d="M33.2783 29.14C32.2779 29.7043 31.1486 30.0006 30 30" stroke="#1E1E1E" stroke-width="2.5" stroke-linecap="round" stroke-linejoin="round"/>
</svg>
