<svg width="40" height="40" viewBox="0 0 40 40" fill="none" xmlns="http://www.w3.org/2000/svg">
<path d="M35.7 18.2034C35.9984 18.0717 36.2516 17.8555 36.4282 17.5814C36.6049 17.3073 36.6972 16.9873 36.6939 16.6613C36.6905 16.3352 36.5915 16.0172 36.4093 15.7468C36.227 15.4764 35.9693 15.2655 35.6683 15.14L21.3833 8.63336C20.9491 8.43527 20.4773 8.33276 20 8.33276C19.5227 8.33276 19.0509 8.43527 18.6167 8.63336L4.33333 15.1334C4.03661 15.2633 3.78419 15.4769 3.60694 15.7481C3.42969 16.0192 3.3353 16.3361 3.3353 16.66C3.3353 16.984 3.42969 17.3009 3.60694 17.572C3.78419 17.8431 4.03661 18.0567 4.33333 18.1867L18.6167 24.7C19.0509 24.8981 19.5227 25.0006 20 25.0006C20.4773 25.0006 20.9491 24.8981 21.3833 24.7L35.7 18.2034Z" stroke="#1E1E1E" stroke-width="2.5" stroke-linecap="round" stroke-linejoin="round"/>
<path d="M36.6667 16.6666V26.6666" stroke="#1E1E1E" stroke-width="2.5" stroke-linecap="round" stroke-linejoin="round"/>
<path d="M10 20.8334V26.6667C10 27.9928 11.0536 29.2646 12.9289 30.2022C14.8043 31.1399 17.3478 31.6667 20 31.6667C22.6522 31.6667 25.1957 31.1399 27.0711 30.2022C28.9464 29.2646 30 27.9928 30 26.6667V20.8334" stroke="#1E1E1E" stroke-width="2.5" stroke-linecap="round" stroke-linejoin="round"/>
</svg>
